<svg width="744.09448819" height="1052.3622047" xmlns="http://www.w3.org/2000/svg">
 <!-- Created with Method Draw - http://github.com/duopixel/Method-Draw/ -->
 <defs>
  <linearGradient y2="0" x2="1" y1="0" x1="0" id="svg_4">
   <stop offset="0" stop-color="#E6C36A"/>
   <stop offset="1" stop-color="#193c95"/>
  </linearGradient>
  <linearGradient y2="0.3125" x2="0.695313" y1="0.792969" x1="0.203125" id="svg_12">
   <stop offset="0" stop-color="#E6C36A"/>
   <stop offset="1" stop-color="#193c95"/>
  </linearGradient>
 </defs>
 <g>
  <title>background</title>
  <rect fill="none" id="canvas_background" height="1054.362205" width="746.094488" y="-1" x="-1"/>
 </g>
 <g>
  <title>Layer 1</title>
  <ellipse stroke="null" transform="rotate(-20 189.04724121093727,314.93109130859364) " fill-opacity="0.52" ry="19.709421" rx="33.24169" id="svg_3" cy="314.931101" cx="189.047242" stroke-width="1.097" fill="url(#svg_12)"/>
  <ellipse stroke="null" fill-opacity="0.52" ry="14.959423" rx="43.241687" id="svg_6" cy="317.681103" cx="256.04724" stroke-width="1.097" fill="url(#svg_12)"/>
  <ellipse transform="rotate(1 380.79724121093926,317.93109130859176) " stroke="null" fill-opacity="0.52" ry="7.709425" rx="83.491691" id="svg_7" cy="317.931104" cx="380.797254" stroke-width="1.097" fill="url(#svg_12)"/>
  <ellipse stroke="null" transform="rotate(-6 341.8719787597665,291.4473266601567) " fill-opacity="0.34" ry="10.970754" rx="92.264935" id="svg_8" cy="291.447336" cx="341.871971" stroke-width="1.097" fill="url(#svg_4)"/>
  <ellipse stroke="null" transform="rotate(-34.30453109741211 332.5434265136718,247.96582031249994) " fill-opacity="0.34" ry="10.970754" rx="94.893658" id="svg_9" cy="247.965821" cx="332.543435" stroke-width="1.097" fill="url(#svg_4)"/>
  <ellipse stroke="null" transform="rotate(-85.33507537841797 255.0655517578125,213.75836181640625) " fill-opacity="0.34" ry="11.718269" rx="92.152767" id="svg_10" cy="213.758382" cx="255.065542" stroke-width="1.097" fill="url(#svg_4)"/>
  <ellipse stroke="null" transform="rotate(-111.8161849975586 210.56553649902338,214.7583618164062) " fill-opacity="0.34" ry="11.718269" rx="92.152767" id="svg_11" cy="214.758382" cx="210.565542" stroke-width="1.097" fill="url(#svg_4)"/>
 </g>
</svg>