<svg width="744.09448819" height="1052.3622047" xmlns="http://www.w3.org/2000/svg">
 <!-- Created with Method Draw - http://github.com/duopixel/Method-Draw/ -->
 <defs>
  <linearGradient id="svg_4" x1="0" y1="0" x2="1" y2="0">
   <stop stop-color="#E6C36A" offset="0"/>
   <stop stop-color="#193c95" offset="1"/>
  </linearGradient>
  <linearGradient id="svg_12" x1="0.203125" y1="0.792969" x2="0.695313" y2="0.3125">
   <stop stop-color="#E6C36A" offset="0"/>
   <stop stop-color="#193c95" offset="1"/>
  </linearGradient>
 </defs>
 <g>
  <title>background</title>
  <rect x="-1" y="-1" width="746.094488" height="1054.362205" id="canvas_background" fill="none"/>
 </g>
 <g>
  <title>Layer 1</title>
  <ellipse fill="url(#svg_12)" stroke-width="1.097" cx="285.047242" cy="613.931101" id="svg_3" rx="33.24169" ry="19.709421" fill-opacity="0.52" transform="rotate(-20 285.04724121093705,613.9310913085938) " stroke="null"/>
  <ellipse fill="url(#svg_12)" stroke-width="1.097" cx="352.04724" cy="616.681103" id="svg_6" rx="43.241687" ry="14.959423" fill-opacity="0.52" stroke="null"/>
  <ellipse fill="url(#svg_12)" stroke-width="1.097" cx="476.797254" cy="616.931104" id="svg_7" rx="83.491691" ry="7.709425" fill-opacity="0.52" stroke="null" transform="rotate(1 476.79724121093926,616.9310913085945) "/>
  <g transform="rotate(-38.329566955566406 332.1090393066404,505.4800720214843) " id="svg_2">
   <ellipse fill="url(#svg_4)" stroke-width="1.097" cx="373.871971" cy="580.447336" id="svg_8" rx="92.264935" ry="10.970754" fill-opacity="0.34" transform="rotate(-6 373.8719787597652,580.4473266601559) " stroke="null"/>
   <ellipse fill="url(#svg_4)" stroke-width="1.097" cx="364.543435" cy="536.965821" id="svg_9" rx="94.893658" ry="10.970754" fill-opacity="0.34" transform="rotate(-34.30453109741211 364.54342651367193,536.9658203124999) " stroke="null"/>
   <ellipse fill="url(#svg_4)" stroke-width="1.097" cx="287.065542" cy="502.758382" id="svg_10" rx="92.152767" ry="11.718269" fill-opacity="0.34" transform="rotate(-85.33507537841797 287.0655517578124,502.7583618164062) " stroke="null"/>
   <ellipse fill="url(#svg_4)" stroke-width="1.097" cx="242.565542" cy="503.758382" id="svg_11" rx="92.152767" ry="11.718269" fill-opacity="0.34" transform="rotate(-111.8161849975586 242.56555175781244,503.7583618164062) " stroke="null"/>
  </g>
 </g>
</svg>